<svg xmlns="http://www.w3.org/2000/svg" viewBox="0 0 524.66 141.48"><defs><style>.cls-1{fill:#fff;}.cls-2{fill:#e60c89;}.cls-3{fill:#33b0e5;}.cls-4{fill:#fcb415;}.cls-5{fill:#97ca3e;}</style></defs><title>logo</title><g id="Layer_2" data-name="Layer 2"><g id="Layer_1-2" data-name="Layer 1"><path d="M445.42,41.43a2.73,2.73,0,0,1-2.73-2.73V27a2.74,2.74,0,1,1,5.47,0V38.7a2.74,2.74,0,0,1-2.74,2.73"/><path d="M445.42,35.18s-24.68-18,0-18,0,18,0,18"/><path d="M430,46.66a18.45,18.45,0,0,1-7.67-1.59c-8.63-3.88-10.87-13.4-11-13.81a2.73,2.73,0,0,1,5.33-1.21c0,.07,1.78,7.32,7.91,10.05,4.92,2.2,11.48,1.07,19.5-3.35a2.78,2.78,0,0,1,2.6,0c8.68,4.54,15.55,5.62,20.4,3.21,5.61-2.79,6.83-9.65,6.84-9.72a2.73,2.73,0,0,1,5.4.87c-.06.39-1.62,9.64-9.74,13.72-6.23,3.14-14.36,2.27-24.15-2.57-5.68,2.94-10.85,4.42-15.47,4.42"/><path d="M489.3,7.75A7.75,7.75,0,1,1,481.55,0a7.75,7.75,0,0,1,7.75,7.75"/><path class="cls-1" d="M487.07,5a2.76,2.76,0,1,0-2.76,2.76A2.76,2.76,0,0,0,487.07,5"/><path d="M422.7,13.19A2.73,2.73,0,0,1,420.46,12c-.06-.09-2.87-4-6.79-4.18-2.71-.11-5.27,1.34-8,4.41a2.73,2.73,0,1,1-4.08-3.64c3.94-4.4,8.14-6.52,12.48-6.22,6.6.4,10.73,6.25,10.91,6.5a2.74,2.74,0,0,1-2.25,4.3"/><path d="M236.53,80.65q0-6.87-1.77-9.73t-6.06-2.87a26.71,26.71,0,0,0-2.77.15c-1,.1-1.88.2-2.76.33v38.75H208.94V58.8c1.21-.32,2.63-.66,4.25-1s3.34-.67,5.15-.95,3.68-.51,5.59-.67,3.78-.24,5.63-.24a23.71,23.71,0,0,1,8.83,1.39A20,20,0,0,1,244,60.61a26.5,26.5,0,0,1,14.32-4.68,24.91,24.91,0,0,1,9.87,1.68,14.83,14.83,0,0,1,6.16,4.72,17.75,17.75,0,0,1,3.15,7.25,47,47,0,0,1,.86,9.35v28.35H264.11V80.65q0-6.87-1.77-9.73c-1.18-1.91-3.19-2.87-6.06-2.87a13,13,0,0,0-3.2.58,12.54,12.54,0,0,0-3.38,1.43,22.19,22.19,0,0,1,.86,4.63c.12,1.62.19,3.36.19,5.2v27.39H236.53Z"/><path d="M309.25,55.74a33.07,33.07,0,0,1,10.5,1.43,16.42,16.42,0,0,1,6.73,4.11,15.11,15.11,0,0,1,3.58,6.49,32,32,0,0,1,1.05,8.49v29.59c-2,.44-4.87,1-8.5,1.57a80.92,80.92,0,0,1-13.17.91,41.81,41.81,0,0,1-8.82-.86,19.15,19.15,0,0,1-6.83-2.81,12.94,12.94,0,0,1-4.39-5.11,17.61,17.61,0,0,1-1.53-7.73,14.58,14.58,0,0,1,1.77-7.44,13.53,13.53,0,0,1,4.72-4.87,21.26,21.26,0,0,1,6.78-2.63,38,38,0,0,1,7.92-.81,44.72,44.72,0,0,1,4.92.24,22.48,22.48,0,0,1,3.48.62V75.6a7.87,7.87,0,0,0-2.2-5.83q-2.19-2.19-7.63-2.19a48.57,48.57,0,0,0-7.16.52,31.28,31.28,0,0,0-6.11,1.48l-1.81-11.45c.83-.25,1.86-.53,3.1-.81s2.59-.54,4.06-.77,3-.41,4.63-.57,3.26-.24,4.91-.24m1.15,41.61c1.39,0,2.73,0,4-.09a26.15,26.15,0,0,0,3-.29V86.19c-.57-.13-1.43-.25-2.58-.38a28,28,0,0,0-6.92,0,9.71,9.71,0,0,0-3.1.9,5.39,5.39,0,0,0-2.1,1.81,5.07,5.07,0,0,0-.76,2.87c0,2.22.75,3.77,2.24,4.63a12.53,12.53,0,0,0,6.16,1.28"/><path d="M374.24,69.68c-1.27-.32-2.77-.66-4.48-1a27.71,27.71,0,0,0-5.54-.53,25.3,25.3,0,0,0-3.19.24,19.38,19.38,0,0,0-2.82.52v38.37H344V59.75a86.24,86.24,0,0,1,9-2.53A52.27,52.27,0,0,1,364.6,56c.77,0,1.69,0,2.77.14s2.16.23,3.25.38,2.16.35,3.24.58a14.9,14.9,0,0,1,2.77.81Z"/><path d="M398.49,75.1q2.08-2.26,4.34-4.74t4.33-4.88l4-4.6c1.24-1.46,2.3-2.72,3.19-3.8h16.91q-5.06,5.81-9.87,11.09T410.8,79.08a66.82,66.82,0,0,1,5.92,6.16q3,3.58,5.91,7.42t5.25,7.64q2.39,3.83,4,7H415.54q-1.53-2.49-3.48-5.5t-4.14-6c-1.47-2-3-3.93-4.62-5.79a40.31,40.31,0,0,0-4.81-4.69v22H384.27V35.51l14.22-2.29Z"/><path d="M433.7,82.56a30.67,30.67,0,0,1,2.05-11.69,25.1,25.1,0,0,1,5.4-8.35,22.43,22.43,0,0,1,7.68-5.06,24.14,24.14,0,0,1,8.92-1.72q10.69,0,16.9,6.54t6.2,19.23c0,.83,0,1.74-.1,2.72s-.12,1.86-.19,2.63H448.3a9.46,9.46,0,0,0,4.11,7q3.63,2.58,9.73,2.58a41,41,0,0,0,7.69-.72A28.59,28.59,0,0,0,476,93.92l1.91,11.55a19.59,19.59,0,0,1-3.05,1.14,39.31,39.31,0,0,1-4.25,1q-2.34.44-5,.72a50.27,50.27,0,0,1-5.34.28,31.57,31.57,0,0,1-11.79-2,22.73,22.73,0,0,1-8.3-5.49,21.7,21.7,0,0,1-4.87-8.25,32.71,32.71,0,0,1-1.58-10.31m33.41-5.44a15.45,15.45,0,0,0-.62-3.53,8.94,8.94,0,0,0-1.62-3,8.76,8.76,0,0,0-2.77-2.2,9.09,9.09,0,0,0-4.16-.86,9.55,9.55,0,0,0-4.1.81A8.49,8.49,0,0,0,451,70.44a9.67,9.67,0,0,0-1.77,3.1,21.6,21.6,0,0,0-.91,3.58Z"/><path d="M491.35,44.57l14.22-2.28V57.08h17.08V68.91H505.57V86.57a14.05,14.05,0,0,0,1.57,7.16c1.06,1.78,3.17,2.67,6.35,2.67a27.7,27.7,0,0,0,4.72-.43,24.29,24.29,0,0,0,4.44-1.19l2,11.07a40.71,40.71,0,0,1-5.73,1.81,33.35,33.35,0,0,1-7.73.76,25.48,25.48,0,0,1-9.64-1.57,15.09,15.09,0,0,1-6.11-4.39,16.26,16.26,0,0,1-3.19-6.82,40,40,0,0,1-.91-8.88Z"/><path d="M293.94,115.12a2.51,2.51,0,0,1-.8,2,2.88,2.88,0,0,1-3.81,0,2.78,2.78,0,0,1,0-3.92,2.88,2.88,0,0,1,3.81,0,2.5,2.5,0,0,1,.8,2m-.42,20.64H289v-16h4.54Z"/><path d="M297.78,120.29a25.25,25.25,0,0,1,3-.62,24.93,24.93,0,0,1,3.84-.29,9.42,9.42,0,0,1,3.39.53,5.19,5.19,0,0,1,2.15,1.51,5.93,5.93,0,0,1,1.12,2.31,12,12,0,0,1,.34,3v9h-4.54v-8.5a6,6,0,0,0-.58-3.1,2.34,2.34,0,0,0-2.16-.91c-.32,0-.67,0-1,0s-.69.07-1,.11v12.36h-4.53Z"/><path d="M329.83,135.24c-.4.12-.87.24-1.4.35s-1.08.21-1.66.29-1.17.14-1.76.2-1.18.07-1.72.07a9.94,9.94,0,0,1-3.53-.58,6.88,6.88,0,0,1-2.62-1.66,7.14,7.14,0,0,1-1.63-2.61,9.93,9.93,0,0,1-.57-3.46,11.91,11.91,0,0,1,.49-3.51,7.7,7.7,0,0,1,1.4-2.67,6,6,0,0,1,2.24-1.67,7.41,7.41,0,0,1,3-.58,7.24,7.24,0,0,1,1.69.18,8.91,8.91,0,0,1,1.5.52v-7.24l4.54-.74Zm-10.26-7.61a5.55,5.55,0,0,0,.95,3.38,3.25,3.25,0,0,0,2.8,1.28c.4,0,.78,0,1.12,0s.63-.06.85-.1v-8.26a3.87,3.87,0,0,0-1.11-.45,5.39,5.39,0,0,0-1.38-.18q-3.23,0-3.23,4.38"/><path d="M347.76,135.21a25.25,25.25,0,0,1-3,.62,24.93,24.93,0,0,1-3.84.29,9,9,0,0,1-3.39-.55A5.07,5.07,0,0,1,335.4,134a6.1,6.1,0,0,1-1.13-2.36,12.85,12.85,0,0,1-.33-3v-8.92h4.54v8.37a6.55,6.55,0,0,0,.57,3.16,2.31,2.31,0,0,0,2.16,1c.33,0,.68,0,1,0s.69-.07,1-.11V119.75h4.54Z"/><path d="M358.41,136.06a11.51,11.51,0,0,1-3.21-.42,4.84,4.84,0,0,1-1.95-1.12,3.67,3.67,0,0,1-1-1.73,9.51,9.51,0,0,1-.26-2.3V112.87l4.54-.74v17.45a6,6,0,0,0,.09,1.09,1.75,1.75,0,0,0,.35.82,1.78,1.78,0,0,0,.74.55,4.44,4.44,0,0,0,1.31.28Z"/><path d="M375.46,133.75c0,2.62-.67,4.56-2,5.83s-3.39,1.9-6.17,1.9a17,17,0,0,1-2.92-.26,18.5,18.5,0,0,1-2.71-.68l.79-3.81a13.52,13.52,0,0,0,2.24.67,13.29,13.29,0,0,0,2.66.25,3.69,3.69,0,0,0,2.76-.86,3.09,3.09,0,0,0,.8-2.19V134a7.34,7.34,0,0,1-1.5.5,8.13,8.13,0,0,1-1.69.17,6.43,6.43,0,0,1-5.08-2,7.88,7.88,0,0,1-1.77-5.49,8.86,8.86,0,0,1,.55-3.21,6.67,6.67,0,0,1,1.6-2.48,7.14,7.14,0,0,1,2.57-1.6,10,10,0,0,1,3.44-.56c.55,0,1.11,0,1.68.08s1.16.11,1.72.2,1.12.17,1.63.28,1,.23,1.39.35Zm-9.95-6.52q0,3.81,3.07,3.81a4.61,4.61,0,0,0,1.31-.18,4.77,4.77,0,0,0,1-.43v-7.25c-.22,0-.48-.07-.79-.1s-.66,0-1.06,0a3.13,3.13,0,0,0-2.68,1.19,4.91,4.91,0,0,0-.88,3"/><path d="M379,127.87a9.85,9.85,0,0,1,.65-3.72,8,8,0,0,1,1.72-2.67,7,7,0,0,1,2.46-1.61,7.55,7.55,0,0,1,2.84-.55A7.08,7.08,0,0,1,392,121.4q2,2.09,2,6.14,0,.39,0,.87c0,.31,0,.59-.07.83H383.62a3,3,0,0,0,1.31,2.23,5.3,5.3,0,0,0,3.1.82,13.29,13.29,0,0,0,2.45-.23,9.19,9.19,0,0,0,2-.56l.61,3.68a7.45,7.45,0,0,1-1,.37c-.41.12-.86.22-1.35.32s-1,.16-1.6.22a16.32,16.32,0,0,1-1.71.09,10.25,10.25,0,0,1-3.76-.63,7.28,7.28,0,0,1-2.64-1.76,7,7,0,0,1-1.56-2.63,10.55,10.55,0,0,1-.5-3.29m10.65-1.73a4.77,4.77,0,0,0-.19-1.13,3,3,0,0,0-.52-1,2.69,2.69,0,0,0-.89-.7,2.87,2.87,0,0,0-1.32-.28,3.09,3.09,0,0,0-1.31.26,2.62,2.62,0,0,0-.91.69,3,3,0,0,0-.56,1,5.61,5.61,0,0,0-.29,1.14Z"/><path d="M419.05,119.75c-.92,3.08-1.87,6-2.87,8.67s-2.08,5.32-3.27,7.85a16.36,16.36,0,0,1-1.28,2.33,6.79,6.79,0,0,1-1.4,1.58,4.85,4.85,0,0,1-1.72.92,7.91,7.91,0,0,1-2.24.29,9.32,9.32,0,0,1-2-.2,8.91,8.91,0,0,1-1.48-.44l.79-3.62a8.09,8.09,0,0,0,1.25.33,7.27,7.27,0,0,0,1.16.09,2.54,2.54,0,0,0,1.87-.65,5.34,5.34,0,0,0,1.12-1.81c-1-2-2.07-4.31-3.11-6.84a82.9,82.9,0,0,1-2.92-8.5h4.81c.2.79.44,1.64.71,2.57s.57,1.85.88,2.8.61,1.86.93,2.75.62,1.71.9,2.44c.26-.73.54-1.54.83-2.44s.56-1.81.84-2.75.54-1.88.79-2.8.48-1.78.69-2.57Z"/><path d="M436,127.72a10.6,10.6,0,0,1-.54,3.46,7.63,7.63,0,0,1-1.59,2.68,7.13,7.13,0,0,1-2.48,1.72,9,9,0,0,1-6.45,0,7.22,7.22,0,0,1-2.48-1.72,7.83,7.83,0,0,1-1.61-2.68,9.85,9.85,0,0,1-.58-3.46,9.7,9.7,0,0,1,.59-3.44,7.76,7.76,0,0,1,1.64-2.65,7.35,7.35,0,0,1,2.5-1.7,8.52,8.52,0,0,1,6.33,0,7.08,7.08,0,0,1,2.48,1.7,7.69,7.69,0,0,1,1.61,2.65,9.7,9.7,0,0,1,.58,3.44m-4.62,0a5.67,5.67,0,0,0-.84-3.3,2.74,2.74,0,0,0-2.39-1.2,2.78,2.78,0,0,0-2.4,1.2,5.6,5.6,0,0,0-.86,3.3,5.74,5.74,0,0,0,.86,3.33,2.74,2.74,0,0,0,2.4,1.24,2.7,2.7,0,0,0,2.39-1.24,5.82,5.82,0,0,0,.84-3.33"/><path d="M453.17,135.21a25.25,25.25,0,0,1-3,.62,24.93,24.93,0,0,1-3.84.29,9,9,0,0,1-3.39-.55,5.14,5.14,0,0,1-2.15-1.53,6.08,6.08,0,0,1-1.12-2.36,12.32,12.32,0,0,1-.34-3v-8.92h4.54v8.37a6.55,6.55,0,0,0,.57,3.16,2.32,2.32,0,0,0,2.17,1c.32,0,.67,0,1,0s.69-.07,1-.11V119.75h4.53Z"/><path d="M467.08,123.76c-.4-.1-.88-.2-1.43-.31a8.48,8.48,0,0,0-2.78-.1,7.35,7.35,0,0,0-.9.17v12.24h-4.54V120.6a25.4,25.4,0,0,1,2.88-.81,16.83,16.83,0,0,1,3.7-.38,7.62,7.62,0,0,1,.88,0c.35,0,.69.07,1,.12s.69.11,1,.18a4.66,4.66,0,0,1,.88.26Z"/><path d="M492.47,127.75a11.51,11.51,0,0,1-.46,3.38,7.55,7.55,0,0,1-1.34,2.62,5.92,5.92,0,0,1-2.19,1.7,7,7,0,0,1-3,.61,8.29,8.29,0,0,1-1.77-.18,8.86,8.86,0,0,1-1.58-.52v6h-4.53v-21.1c.4-.12.87-.23,1.4-.35s1.07-.2,1.65-.29,1.17-.14,1.77-.19,1.17-.08,1.72-.08a9.93,9.93,0,0,1,3.53.59,7,7,0,0,1,4.25,4.31,10.23,10.23,0,0,1,.56,3.47m-4.63.12a5.47,5.47,0,0,0-.94-3.36,3.28,3.28,0,0,0-2.8-1.26c-.41,0-.78,0-1.13,0s-.63.07-.85.11v8.19a4,4,0,0,0,1.11.45,5.05,5.05,0,0,0,1.39.18c2.15,0,3.22-1.44,3.22-4.35"/><path d="M495.21,127.87a9.85,9.85,0,0,1,.65-3.72,8,8,0,0,1,1.72-2.67,7.1,7.1,0,0,1,2.45-1.61,7.64,7.64,0,0,1,2.85-.55,7.08,7.08,0,0,1,5.39,2.08c1.32,1.39,2,3.44,2,6.14,0,.26,0,.55,0,.87s-.05.59-.07.83H499.87a3,3,0,0,0,1.31,2.23,5.28,5.28,0,0,0,3.1.82,13.29,13.29,0,0,0,2.45-.23,9.37,9.37,0,0,0,2-.56l.61,3.68a7.45,7.45,0,0,1-1,.37c-.41.12-.86.22-1.36.32s-1,.16-1.59.22a16.32,16.32,0,0,1-1.71.09,10.25,10.25,0,0,1-3.76-.63,7.32,7.32,0,0,1-2.65-1.76,6.82,6.82,0,0,1-1.55-2.63,10.55,10.55,0,0,1-.5-3.29m10.65-1.73a4.77,4.77,0,0,0-.19-1.13,2.86,2.86,0,0,0-.53-1,2.55,2.55,0,0,0-.88-.7,2.87,2.87,0,0,0-1.32-.28,3.06,3.06,0,0,0-1.31.26,2.62,2.62,0,0,0-.91.69,3.21,3.21,0,0,0-.57,1,6.33,6.33,0,0,0-.28,1.14Z"/><path d="M513.6,115.76l4.53-.73v4.72h5.45v3.77h-5.45v5.63a4.55,4.55,0,0,0,.5,2.29,2.18,2.18,0,0,0,2,.85,8.82,8.82,0,0,0,1.5-.14,7.93,7.93,0,0,0,1.42-.38l.64,3.53a13.14,13.14,0,0,1-1.83.58,10.8,10.8,0,0,1-2.47.24,8.21,8.21,0,0,1-3.07-.5,4.9,4.9,0,0,1-2-1.4,5.37,5.37,0,0,1-1-2.18,13,13,0,0,1-.28-2.83Z"/><path class="cls-2" d="M25.31,28.29A38.33,38.33,0,0,1,42.06,32,31.75,31.75,0,0,1,54.57,42.36a24.72,24.72,0,0,1,4.65,14.78,26.71,26.71,0,0,1-4.1,14.38A29.08,29.08,0,0,1,43.73,81.94a33.82,33.82,0,0,1-15.89,3.85,46.79,46.79,0,0,1-6.07-.51l.5,20.35H2L0,35.27q13.88-7,25.31-7M21,47.12l.4,19.64a12.9,12.9,0,0,0,4.76.91,14.29,14.29,0,0,0,6.22-1.42,12.7,12.7,0,0,0,4.81-3.85A8.56,8.56,0,0,0,39,57.14a10.79,10.79,0,0,0-3.6-8.2A12.41,12.41,0,0,0,21,47.12"/><path class="cls-3" d="M69.8,56.86Q80.47,49,91,50.89t18.56,12.79a33.92,33.92,0,0,1,1.94,2.82L81.31,89.17a14.69,14.69,0,0,0,6.39,2.59,8.41,8.41,0,0,0,5.76-1.18q7.26-4.52,7-11.36l14.89-5.49a20.73,20.73,0,0,1,1.07,10.4,27.5,27.5,0,0,1-3.92,10.62,30.28,30.28,0,0,1-7.89,8.55,14,14,0,0,1-1.78,1.18,27,27,0,0,1-13.77,4.14,32,32,0,0,1-26.6-13.19,17.23,17.23,0,0,1-1.37-2,24.26,24.26,0,0,1-3.94-12.6,26.52,26.52,0,0,1,3.18-13.17A31.53,31.53,0,0,1,69.8,56.86m7.73,10.73q-5.5,4-3.83,11L88.31,68a6.92,6.92,0,0,0-5.25-2.37,9.45,9.45,0,0,0-5.53,1.93"/><path class="cls-4" d="M154.41,78.8l5.33,14.93a22.12,22.12,0,0,1-8.59,7.74A27.58,27.58,0,0,1,138.83,104q-9.83,0-14.57-5t-4.75-15.89q0-2.56.54-8.12l1.49-12.27h-8.43l-.75-16.86,11.31-.21,1.5-12.49,19-1-1.49,13.23,12-.21,2,17.4h-16l-1.07,9.6L139.36,75a12.31,12.31,0,0,0,1.6,6.67,4.88,4.88,0,0,0,4.27,2.51,9.14,9.14,0,0,0,4.7-1.18,17.84,17.84,0,0,0,4.48-4.15"/><path class="cls-5" d="M203.82,67.29l-7.47,11.84a55.92,55.92,0,0,0-8.6-3.89A22.26,22.26,0,0,0,180.66,74a12.6,12.6,0,0,0-5.28,1c-1.39.65-2.09,1.46-2.09,2.46q0,2.67,7.47,2.67,10.89,0,17,4.27a13.65,13.65,0,0,1,6.09,11.84,17.84,17.84,0,0,1-3.52,10.57,24.34,24.34,0,0,1-9.61,7.78,30.35,30.35,0,0,1-13.23,2.89A35.3,35.3,0,0,1,164,114.83a25.83,25.83,0,0,1-10.14-7l10.78-12.16a18.92,18.92,0,0,0,5.87,3.47,19.4,19.4,0,0,0,6.72,1.22,12.66,12.66,0,0,0,5.61-1.12c1.52-.75,2.29-1.65,2.29-2.72a1.91,1.91,0,0,0-1.49-1.82,17.44,17.44,0,0,0-5-.53,10.26,10.26,0,0,1-1.92.11,22,22,0,0,1-10.08-2.4A20.64,20.64,0,0,1,159,85.43a14.5,14.5,0,0,1-2.88-8.75,14.8,14.8,0,0,1,3.31-9.12,24.07,24.07,0,0,1,8.86-7A28.1,28.1,0,0,1,180,58a33.9,33.9,0,0,1,12.43,2.45,40,40,0,0,1,11.37,6.83"/></g></g></svg>